#!OML:ASF H:\GeneralSubjects\Female5\Project 1\Capture day 1\Session 1\Female5.ASF
:FULLY-SPECIFIED
:DEGREES
32
root 7.97527 15.8615 4.57682 -177.027 -39.8125 -173.707
lowerback 5.14005 2.45238 2.59461
upperback -9.72117 3.27147 1.14051
thorax -13.3867 1.1584 -0.686466
lowerneck -14.4375 -3.58604 -0.136815
upperneck 30.8992 -7.33015 1.80963
head 12.764 -3.58749 -0.51395
rclavicle 3.83406e-014 9.74045e-015
rhumerus 12.9073 -0.223877 -17.5447
rradius 86.0606
rwrist 35.8321
rhand -64.9722 7.23784
rfingers 7.12502
rthumb -36.8713 -18.8598
lclavicle 3.83406e-014 9.74045e-015
lhumerus -52.0212 14.4623 66.8003
lradius 33.5541
lwrist -12.5511
lhand -27.5832 32.9225
lfingers 7.12502
lthumb -0.983341 62.8999
rfemur 17.7184 43.0138 43.5812
rtibia -8.91624
rfoot -70.0288 -32.435
rtoes 29.2561
lfemur -16.7591 -21.5334 -11.2521
ltibia 17.3557
lfoot -15.6848 15.1165
ltoes -67.5789
33
root 7.86733 15.8741 4.58786 -176.751 -39.7545 -174.12
lowerback 4.95696 2.51055 2.29231
upperback -9.88979 3.26512 0.849088
thorax -13.4683 1.15889 -0.829986
lowerneck -14.492 -3.56937 0.282016
upperneck 31.1319 -7.64432 2.25984
head 12.8861 -3.63072 -0.472077
rclavicle -1.64494e-014 5.36719e-015
rhumerus 13.2303 -4.07403 -20.5574
rradius 84.908
rwrist 31.4787
rhand -63.9556 4.9094
rfingers 7.12502
rthumb -35.9088 -21.4295
lclavicle -1.64494e-014 5.36719e-015
lhumerus -52.1925 14.0075 66.5593
lradius 33.4929
lwrist -12.666
lhand -27.1457 33.9452
lfingers 7.12502
lthumb -0.560763 63.9242
rfemur 17.5534 43.0519 42.7995
rtibia -8.50235
rfoot -70.1895 -32.7848
rtoes 27.729
lfemur -15.8339 -22.3401 -12.2131
ltibia 16.334
lfoot -16.3243 15.4792
ltoes -66.9059
34
root 7.76185 15.8865 4.6031 -176.59 -39.7556 -174.425
lowerback 4.86545 2.49118 1.93092
upperback -9.91649 3.17451 0.680684
thorax -13.4534 1.142 -0.795722
lowerneck -14.0713 -3.69696 0.287205
upperneck 30.8999 -8.08456 2.97643
head 12.7499 -3.75774 -0.253815
rclavicle -6.60959e-014 -1.78906e-015
rhumerus 14.1079 -8.91462 -24.4408
rradius 83.7747
rwrist 26.5316
rhand -62.8427 -2.67001
rfingers 7.12502
rthumb -34.8537 -29.2601
lclavicle -6.60959e-014 -1.78906e-015
lhumerus -52.0778 13.8752 66.3632
lradius 33.3716
lwrist -12.8403
lhand -26.9874 34.2989
lfingers 7.12502
lthumb -0.40791 64.2783
rfemur 17.4428 43.0136 42.1212
rtibia -8.10632
rfoot -70.2477 -33.2819
rtoes 26.4908
lfemur -14.9019 -23.222 -13.1128
ltibia 15.3458
lfoot -16.3204 16.4473
ltoes -66.915
35
root 7.65853 15.8998 4.61841 -176.663 -39.7718 -174.531
lowerback 4.89215 2.41034 1.65181
upperback -9.84667 3.03705 0.648723
thorax -13.4034 1.10825 -0.654488
lowerneck -13.9649 -3.78599 0.192627
upperneck 30.7675 -8.43359 3.6665
head 12.7269 -3.84787 -0.0268149
rclavicle 1.11319e-014 1.17283e-014
rhumerus 15.6739 -14.1903 -28.8558
rradius 82.9311
rwrist 20.2541
rhand -61.1054 -12.4015
rfingers 7.12502
rthumb -33.2035 -39.3585
lclavicle 1.11319e-014 1.17283e-014
lhumerus -51.8542 13.9412 66.2128
lradius 33.2265
lwrist -12.8259
lhand -27.2767 34.3033
lfingers 7.12502
lthumb -0.687373 64.282
rfemur 17.2821 42.9402 41.5789
rtibia -7.60945
rfoot -70.0957 -33.9441
rtoes 25.0586
lfemur -13.8816 -23.9931 -13.8677
ltibia 14.4075
lfoot -15.7686 17.4543
ltoes -67.4069
36
root 7.5647 15.913 4.63792 -176.549 -39.7869 -174.767
lowerback 4.91384 2.37133 1.27822
upperback -9.9361 2.92795 0.592637
thorax -13.5419 1.08534 -0.492129
lowerneck -14.8988 -3.72577 0.512486
upperneck 31.349 -8.64274 3.94666
head 13.1811 -3.83729 -0.0467274
rclavicle 1.23743e-014 -5.96354e-016
rhumerus 17.5217 -18.4464 -33.3506
rradius 82.5719
rwrist 10.6002
rhand -60.0564 -23.8556
rfingers 7.12502
rthumb -32.2055 -51.0201
lclavicle 1.23743e-014 -5.96354e-016
lhumerus -51.888 13.8652 66.0132
lradius 33.1728
lwrist -12.8909
lhand -27.0426 34.5632
lfingers 7.12502
lthumb -0.461252 64.5425
rfemur 16.8509 42.9154 40.7851
rtibia -7.0198
rfoot -69.7493 -34.9715
rtoes 23.0931
lfemur -13.1561 -24.458 -14.6183
ltibia 13.6495
lfoot -15.5114 17.8149
ltoes -67.5194
